<?xml version="1.0" encoding="utf-8"?>
<!-- Generator: Adobe Illustrator 22.0.0, SVG Export Plug-In . SVG Version: 6.00 Build 0)  -->
<svg version="1.1" id="Capa_1" xmlns="http://www.w3.org/2000/svg" xmlns:xlink="http://www.w3.org/1999/xlink" x="0px" y="0px"
	 viewBox="0 0 122.9 141.2" style="enable-background:new 0 0 122.9 141.2;" xml:space="preserve">
<style type="text/css">
	.st0{fill:#0A4C56;}
	.st1{fill:#053540;}
	.st2{fill:#DF9280;}
	.st3{fill:#F8BCAA;}
	.st4{fill:#F5A58E;}
	.st5{fill:#FDC21E;}
	.st6{fill:#FFFFFF;}
</style>
<path class="st0" d="M128.8,30.6c-0.1-0.3-0.2-0.5-0.3-0.8c0.1,0.2,0.1,0.5,0.2,0.8H128.8z"/>
<g>
	<path class="st1" d="M84.9,23.1c-1.2-3.8-2.8-7.4-5.7-10.8c-4.3-5.2-10.4-8.9-17.2-8.9c-17.4,0-23,18.2-25.1,32.5
		c-2.2,14.6-4.4,29.3-6.6,43.9c-0.2,1-2.2,17.1-2.6,17.1c0,0,70.9-0.6,70.9-0.6c-3.7-20.1-7.3-40.2-11-60.2
		C86.8,31.6,86.1,27.2,84.9,23.1z"/>
	<rect x="56.8" y="54.9" class="st2" width="12.2" height="15.3"/>
	<ellipse class="st3" cx="62.4" cy="32.2" rx="22.5" ry="25.3"/>
	<ellipse class="st3" cx="62.4" cy="34.8" rx="22.5" ry="27.9"/>
	<path class="st4" d="M62.5,62.8c12.4-0.1,22.4-12.6,22.4-27.9c0-15.4-10-27.8-22.4-27.9V62.8z"/>
	<ellipse class="st3" cx="62.3" cy="94.1" rx="53.1" ry="24.9"/>
	
		<ellipse transform="matrix(4.751033e-02 -0.9989 0.9989 4.751033e-02 -97.2996 119.7244)" class="st3" cx="14.1" cy="110.9" rx="24.5" ry="11.3"/>
	
		<ellipse transform="matrix(0.9989 -4.751033e-02 4.751033e-02 0.9989 -5.1451 5.2943)" class="st4" cx="108.8" cy="110.9" rx="11.3" ry="24.5"/>
	
		<ellipse transform="matrix(3.708598e-02 -0.9993 0.9993 3.708598e-02 -25.9776 234.7057)" class="st4" cx="108.8" cy="130.8" rx="24.5" ry="11.3"/>
	<path class="st3" d="M39.5,44h1.2c1.9,0,3.5-1.6,3.5-3.5V34c0-1.9-1.6-3.5-3.5-3.5h-1.2c-1.9,0-3.5,1.6-3.5,3.5v6.5
		C36,42.4,37.6,44,39.5,44z"/>
	
		<ellipse transform="matrix(0.9993 -3.708598e-02 3.708598e-02 0.9993 -4.8421 0.6284)" class="st3" cx="14.5" cy="130.8" rx="11.3" ry="24.5"/>
	<path class="st5" d="M62.3,8.1c9.2,0,17.1,6.1,21.2,15C80.7,12.9,72.2,5.5,62.3,5.5c-10,0-18.4,7.4-21.2,17.6
		C45.2,14.1,53.1,8.1,62.3,8.1z"/>
	<path class="st0" d="M97.2,23.9h0.2c0.1-0.3,0.1-0.6,0.2-0.9C97.5,23.3,97.4,23.6,97.2,23.9z"/>
	<path class="st0" d="M84.9,28.9C80.7,16.3,72.1,7.7,62.3,7.7c-9.9,0-18.4,8.7-22.6,21.3H84.9z"/>
	<path class="st4" d="M62.8,69.2V119c29.2-0.1,52.8-11.2,52.8-24.9S91.9,69.3,62.8,69.2z"/>
	<circle class="st4" cx="43.5" cy="106.7" r="20.2"/>
	<circle class="st3" cx="82.6" cy="106.7" r="20.2"/>
	<circle class="st6" cx="53.6" cy="34.6" r="4.3"/>
	<circle class="st6" cx="72.3" cy="34.6" r="4.3"/>
	<path class="st1" d="M104.7,104.4c-11.3-5-26.2-8.1-42.4-8.1c-16,0-30.7,3-42,7.9l19.7,55.5c6.9,1.3,14.4,2,22.3,2
		c8,0,15.7-0.7,22.8-2.1L104.7,104.4z"/>
	<circle class="st1" cx="53.6" cy="34.6" r="1.8"/>
	<circle class="st1" cx="72.3" cy="34.6" r="1.8"/>
	<circle class="st6" cx="72.7" cy="32.8" r="1.3"/>
	<circle class="st6" cx="54" cy="32.8" r="1.3"/>
	<ellipse class="st3" cx="54" cy="41.6" rx="8.1" ry="4.3"/>
	<ellipse class="st4" cx="72.8" cy="41.6" rx="8.1" ry="4.3"/>
	<path class="st6" d="M62.3,48.6c-2.3,0-4.3-0.5-6-1.3c0.4,2.8,2.9,5,6,5c3.1,0,5.6-2.2,6-5C66.6,48.1,64.6,48.6,62.3,48.6z"/>
	<path class="st4" d="M83.6,44h1.3c2,0,3.7-1.7,3.7-3.7v-6.1c0-2-1.7-3.7-3.7-3.7h-1.3c-2,0-3.7,1.7-3.7,3.7v6.1
		C79.9,42.3,81.5,44,83.6,44z"/>
	<rect x="39" y="43.3" class="st5" width="0.9" height="4.9"/>
	<ellipse class="st5" cx="39.4" cy="50.6" rx="1.3" ry="3.1"/>
	<rect x="86" y="43.3" class="st5" width="0.9" height="4.9"/>
	<ellipse class="st5" cx="86.4" cy="50.6" rx="1.3" ry="3.1"/>
</g>
</svg>
