<?xml version="1.0" encoding="utf-8"?>
<!-- Generator: Adobe Illustrator 22.0.0, SVG Export Plug-In . SVG Version: 6.00 Build 0)  -->
<svg version="1.1" id="Capa_1" xmlns="http://www.w3.org/2000/svg" xmlns:xlink="http://www.w3.org/1999/xlink" x="0px" y="0px"
	 viewBox="0 0 149 141.2" style="enable-background:new 0 0 149 141.2;" xml:space="preserve">
<style type="text/css">
	.st0{fill:#676766;}
</style>
<g>
	<ellipse class="st0" cx="73.9" cy="166.3" rx="98.7" ry="84.7"/>
	<g>
		<path class="st0" d="M65.7,56.7c-0.4-0.4-0.5-0.8-0.5-1.3c0-0.8,0-1.5,0.1-1.9c0.4-2.5,1.4-4.7,2.9-6.7c1.5-2,3.5-4.2,6.1-6.7
			c1.9-1.8,3.3-3.4,4.3-4.6c1-1.2,1.5-2.5,1.5-3.7c0.2-1.8-0.4-3.2-1.7-4.3c-1.3-1.1-2.9-1.6-4.9-1.6c-4.5,0-7.3,2.2-8.3,6.5
			c-0.3,0.7-0.7,1.3-1.1,1.6c-0.4,0.4-1,0.5-1.8,0.5H50.4c-0.6,0-1.1-0.2-1.5-0.7c-0.4-0.5-0.6-1-0.6-1.8c0.1-3.3,1.2-6.4,3.2-9.5
			c2-3,5-5.5,8.9-7.4c3.9-1.9,8.7-2.9,14.1-2.9c5.6,0,10.1,0.9,13.6,2.6s6,3.8,7.5,6.3c1.5,2.5,2.3,5,2.3,7.6c0,3.1-0.7,5.8-2.1,8.1
			c-1.4,2.3-3.4,4.9-6,7.7c-1.6,1.8-2.9,3.3-3.7,4.4c-0.8,1.1-1.5,2.3-2.1,3.6c-0.2,0.5-0.5,1.3-0.6,2.3c-0.5,0.9-0.9,1.5-1.3,1.9
			s-0.9,0.5-1.6,0.5H67C66.5,57.3,66.1,57.1,65.7,56.7z M65.6,76.3c-0.5-0.4-0.7-1-0.7-1.6V63.9c0-0.7,0.2-1.2,0.7-1.7
			c0.5-0.5,1-0.7,1.7-0.7h12.2c0.7,0,1.2,0.2,1.7,0.7c0.5,0.5,0.7,1,0.7,1.7v10.8c0,0.7-0.2,1.2-0.7,1.6c-0.5,0.4-1,0.6-1.7,0.6
			H67.3C66.6,77,66.1,76.8,65.6,76.3z"/>
	</g>
</g>
</svg>
