<?xml version="1.0" encoding="utf-8"?>
<!-- Generator: Adobe Illustrator 22.0.0, SVG Export Plug-In . SVG Version: 6.00 Build 0)  -->
<svg version="1.1" id="Capa_1" xmlns="http://www.w3.org/2000/svg" xmlns:xlink="http://www.w3.org/1999/xlink" x="0px" y="0px"
	 viewBox="0 0 149 141.2" style="enable-background:new 0 0 149 141.2;" xml:space="preserve">
<style type="text/css">
	.st0{opacity:0.5;}
	.st1{fill:#676766;}
</style>
<g class="st0">
	<g>
		<path class="st1" d="M61.5,91.7c-0.6-0.6-1-1.4-1-2.2c0-1.5,0-2.6,0.2-3.3c0.7-4.3,2.4-8.2,5-11.7c2.6-3.5,6.1-7.4,10.6-11.7
			c3.3-3.2,5.8-5.8,7.5-8c1.7-2.2,2.6-4.3,2.7-6.4c0.3-3.1-0.7-5.6-2.9-7.5c-2.3-1.9-5.1-2.9-8.5-2.9c-7.8,0-12.6,3.8-14.4,11.3
			c-0.5,1.3-1.2,2.2-1.9,2.9c-0.7,0.6-1.8,1-3.2,1H34.9c-1.1,0-1.9-0.4-2.6-1.2c-0.7-0.8-1-1.8-1-3.1c0.2-5.7,2.1-11.2,5.6-16.5
			c3.5-5.3,8.7-9.6,15.6-12.9c6.9-3.3,15.1-5,24.6-5c9.7,0,17.6,1.5,23.7,4.5s10.4,6.7,13.1,11c2.6,4.3,4,8.7,4,13.2
			c0,5.4-1.2,10.1-3.6,14.1c-2.4,4-5.9,8.5-10.5,13.5c-2.9,3.2-5,5.7-6.5,7.6c-1.5,1.9-2.7,4-3.6,6.2c-0.4,1-0.8,2.3-1.1,4
			c-0.8,1.6-1.6,2.7-2.3,3.3c-0.7,0.6-1.6,1-2.8,1H63.8C62.9,92.7,62.2,92.3,61.5,91.7z M61.3,125.8c-0.8-0.7-1.2-1.7-1.2-2.9v-18.9
			c0-1.2,0.4-2.1,1.2-2.9c0.8-0.8,1.8-1.2,2.9-1.2h21.3c1.2,0,2.1,0.4,2.9,1.2c0.8,0.8,1.2,1.8,1.2,2.9V123c0,1.2-0.4,2.1-1.2,2.9
			c-0.8,0.7-1.8,1.1-2.9,1.1H64.2C63.1,126.9,62.1,126.6,61.3,125.8z"/>
	</g>
</g>
</svg>
